<svg version="1.1" id="Layer_1" xmlns="http://www.w3.org/2000/svg" xmlns:xlink="http://www.w3.org/1999/xlink" x="0px" y="0px"
	 width="100%" viewBox="0 0 1401 658" enable-background="new 0 0 1401 658" xml:space="preserve">
<path fill="#331F00" opacity="1.000000" stroke="none" 
	d="
M744.000000,0.999998 
	C963.286743,1.000000 1182.573486,1.000000 1401.930176,1.000000 
	C1401.930176,220.240158 1401.930176,439.480347 1401.930176,659.000000 
	C1183.306519,659.000000 964.612976,659.000000 745.782349,658.717773 
	C745.430176,655.972900 745.027100,653.510254 745.026794,651.047607 
	C744.997864,436.647827 745.003052,222.248062 744.958618,7.848300 
	C744.958130,5.565466 744.333374,3.282761 744.000000,0.999998 
M1161.049805,126.654289 
	C1155.564087,133.738327 1150.152954,140.881638 1144.577148,147.894135 
	C1132.581665,162.980988 1120.419067,177.935608 1108.477783,193.064972 
	C1095.398315,209.636261 1082.512817,226.360458 1069.501465,242.985626 
	C1060.851807,254.037659 1052.300171,265.173492 1043.375610,276.000702 
	C1038.034302,282.480774 1031.772339,288.126862 1023.513184,290.752472 
	C1009.948792,295.064606 996.045532,292.154388 981.822632,293.085602 
	C981.822632,221.351868 981.822632,150.291809 981.822632,79.353218 
	C950.292480,79.353218 919.230896,79.353218 888.373291,79.353218 
	C888.373291,249.760452 888.373291,419.814270 888.373291,590.000000 
	C917.572571,590.000000 946.398743,590.000427 975.224854,589.999695 
	C981.998047,589.999512 981.999756,589.997803 981.999817,583.186523 
	C982.000183,512.191711 982.037415,441.196838 981.913147,370.202240 
	C981.905090,365.630127 982.767029,363.604767 987.892456,363.897156 
	C999.465515,364.557434 1011.069641,364.911987 1022.661926,364.932251 
	C1035.135132,364.954071 1044.467163,371.049408 1052.193726,379.872192 
	C1058.084961,386.599426 1063.192871,394.015137 1068.611206,401.153473 
	C1078.992188,414.830048 1089.276367,428.580627 1099.729980,442.201416 
	C1111.348145,457.339722 1123.187378,472.308380 1134.786255,487.461304 
	C1144.877197,500.644409 1154.736816,514.004150 1164.754272,527.243896 
	C1174.288452,539.845154 1183.812378,552.455872 1193.506714,564.933655 
	C1197.794922,570.452942 1202.072998,576.092163 1207.096924,580.902771 
	C1215.767456,589.205200 1227.443970,589.484985 1238.301880,589.775330 
	C1264.281372,590.469910 1290.292114,590.009644 1316.290161,589.965820 
	C1317.430420,589.963867 1318.570068,589.468567 1319.962769,589.144226 
	C1312.690430,579.315552 1305.804443,570.058044 1298.970947,560.762085 
	C1287.697632,545.426758 1276.568237,529.984436 1265.176270,514.738098 
	C1251.678345,496.673065 1237.890015,478.825043 1224.373657,460.773560 
	C1215.213867,448.540283 1206.340942,436.092590 1197.276489,423.787323 
	C1185.556519,407.877014 1173.765137,392.019196 1162.020142,376.127228 
	C1153.183594,364.170685 1144.957031,351.700073 1135.368530,340.382019 
	C1127.312012,330.872223 1117.068604,323.557831 1104.417480,318.605988 
	C1108.396851,315.905090 1112.177368,313.963501 1115.173828,311.178497 
	C1121.922119,304.906464 1128.654907,298.542603 1134.710205,291.618195 
	C1143.142944,281.975281 1150.954224,271.788757 1159.023926,261.828888 
	C1168.022583,250.722641 1176.968262,239.573166 1186.019775,228.510284 
	C1194.211914,218.497665 1202.601685,208.646179 1210.747314,198.596237 
	C1219.792114,187.436813 1228.588013,176.075806 1237.622559,164.907883 
	C1246.930298,153.402222 1256.440918,142.060791 1265.777954,130.578705 
	C1275.303711,118.864761 1284.741821,107.079369 1294.187134,95.300369 
	C1298.290161,90.183525 1302.315430,85.004387 1307.048950,79.000000 
	C1296.503174,79.000000 1287.364624,78.902252 1278.228760,79.019699 
	C1257.139038,79.290817 1236.043945,79.449066 1214.963745,80.075836 
	C1200.901245,80.493942 1191.123657,88.595978 1182.918091,99.262436 
	C1175.943481,108.328667 1168.623291,117.129051 1161.049805,126.654289 
z"/>
<path fill="#000000" opacity="0" stroke="none" 
	d="
M743.535034,0.999998 
	C744.333374,3.282761 744.958130,5.565466 744.958618,7.848300 
	C745.003052,222.248062 744.997864,436.647827 745.026794,651.047607 
	C745.027100,653.510254 745.430176,655.972900 745.322632,658.717773 
	C497.102783,659.000000 249.205582,659.000000 1.000000,659.000000 
	C1.000000,561.310242 1.000000,463.620117 1.337818,365.123993 
	C2.091939,364.825714 2.772480,365.281403 2.884446,365.849152 
	C4.294980,373.001984 5.848791,380.137268 6.928864,387.342529 
	C9.692824,405.781250 16.516895,422.906555 24.043409,439.728119 
	C35.073582,464.380249 49.465511,486.911377 67.507782,507.148804 
	C79.232452,520.299988 91.599899,532.719055 105.746902,543.180603 
	C115.383690,550.306946 125.380661,557.039062 135.707504,563.112671 
	C145.661423,568.966980 156.003998,574.311462 166.609207,578.872131 
	C182.788208,585.829712 199.443665,591.696655 216.948837,594.381714 
	C233.223038,596.877991 249.533203,599.933594 265.920013,600.661438 
	C280.120087,601.292236 294.476288,599.285522 308.715515,597.937866 
	C326.867737,596.219788 344.491821,591.681946 361.601959,585.607300 
	C382.799225,578.081543 403.289429,568.771790 421.650818,555.595886 
	C433.309143,547.229919 444.296875,537.924988 455.494751,528.928467 
	C456.663818,527.989197 457.490601,526.381714 458.012421,524.918823 
	C461.109619,516.235596 453.420135,503.363495 444.159485,500.950073 
	C432.975128,498.035309 424.376617,502.480103 416.013245,509.298828 
	C409.770905,514.388245 402.748993,518.521423 395.882324,522.891968 
	C395.559418,522.581055 395.428436,522.458496 395.526917,522.052368 
	C398.789490,515.724915 401.387939,509.407288 404.975464,503.712799 
	C408.718811,497.770996 409.209259,491.274994 407.453064,485.348572 
	C405.281586,478.020599 399.428497,473.067963 392.163147,469.977386 
	C385.648193,467.205994 377.483551,468.982635 374.067566,475.223419 
	C367.418091,487.371521 361.705994,500.042084 354.840881,512.059387 
	C350.234467,520.122925 344.822266,527.864197 338.841156,534.966980 
	C332.367279,542.654846 324.575806,549.207397 314.828033,552.587036 
	C308.626953,554.737061 302.239258,556.414246 295.841766,557.901123 
	C293.174805,558.520996 291.256561,557.470581 292.476593,553.939453 
	C293.048431,552.284241 292.979706,550.362793 292.980865,548.561951 
	C293.005981,509.396118 293.041840,470.230194 292.985413,431.064453 
	C292.947021,404.422516 292.738007,377.780701 292.779388,351.139130 
	C292.781006,350.091919 294.527039,348.217560 295.560272,348.144562 
	C300.203735,347.816559 304.912567,347.665863 309.543854,348.069733 
	C319.150269,348.907562 326.293945,345.738770 329.978943,336.461792 
	C332.580170,329.913269 333.288788,323.140411 330.032532,316.684357 
	C326.618958,309.916382 320.418243,307.225830 313.125092,307.036285 
	C306.524139,306.864685 299.915222,307.000000 293.288422,307.000000 
	C293.288422,236.694351 293.288422,166.949402 293.288422,95.677376 
	C302.909515,98.366875 312.166901,100.160332 320.797394,103.549919 
	C334.391815,108.889053 344.069061,119.229301 352.024506,131.216217 
	C362.574829,147.112930 369.382721,164.778656 375.964081,182.520844 
	C380.661591,195.184555 387.684387,199.534210 400.477722,195.856598 
	C410.861023,192.871780 420.078613,184.645721 415.835724,171.232147 
	C413.567810,164.062424 410.020447,157.283157 406.864532,150.413101 
	C404.383514,145.012299 401.617462,139.742447 398.978058,134.414413 
	C399.430328,133.984070 399.882599,133.553726 400.334869,133.123398 
	C409.179047,140.206482 418.407898,146.867004 426.769928,154.479706 
	C437.209900,163.984177 448.235809,170.365219 463.003296,167.053802 
	C468.840302,165.744934 473.624908,162.941055 475.671936,157.428467 
	C477.870392,151.508057 476.926422,145.316437 472.188995,140.828568 
	C461.292480,130.506119 450.556396,119.908951 438.816376,110.608315 
	C423.291901,98.309570 406.224396,88.174118 388.089935,80.091995 
	C377.494324,75.369751 366.786407,70.712265 355.752014,67.215141 
	C344.998352,63.806984 333.831146,61.561604 322.721924,59.458714 
	C312.487244,57.521374 302.097839,55.341732 291.759552,55.253010 
	C275.096497,55.110004 258.439270,54.148609 241.687103,56.699207 
	C225.273865,59.198204 209.131744,62.109104 193.167542,66.795494 
	C167.008911,74.474525 142.892456,86.273956 120.390656,101.339706 
	C110.188507,108.170380 101.007629,116.522385 91.331558,124.143761 
	C77.342628,135.162186 66.138069,148.873108 55.269215,162.723160 
	C47.815647,172.221146 41.685482,182.808365 35.451374,193.201187 
	C25.280642,210.156754 17.409344,228.243805 12.147154,247.268188 
	C8.355245,260.977081 5.974514,275.075470 2.870977,288.979309 
	C2.769031,289.436005 1.646690,289.664917 1.000003,290.000000 
	C1.000000,193.706848 1.000000,97.413689 1.000000,1.000000 
	C248.356628,1.000000 495.713287,1.000000 743.535034,0.999998 
M653.047607,531.310242 
	C643.935913,516.942566 634.812744,502.582214 625.716309,488.204895 
	C619.326355,478.105194 612.972900,467.982422 606.746826,458.098053 
	C608.630310,456.115845 610.059387,454.629761 611.469055,453.125458 
	C619.315125,444.752533 628.015076,437.009491 634.786926,427.842438 
	C643.703125,415.772491 650.505066,402.373322 655.673096,388.062439 
	C660.461121,374.803833 663.741882,361.200439 664.716675,347.397156 
	C666.080750,328.080627 664.438538,308.952484 658.330383,290.074036 
	C652.331543,271.533478 644.351074,254.472839 632.600586,238.911392 
	C621.758301,224.552673 609.014160,212.157547 594.235962,202.312546 
	C580.123413,192.910934 564.634460,186.069946 547.910034,181.645660 
	C533.471924,177.826202 519.105652,175.803009 504.315308,176.039459 
	C498.551727,176.131607 492.727478,176.225754 487.050598,177.097961 
	C477.287415,178.597992 467.352325,179.852264 457.971466,182.763245 
	C443.772919,187.169189 429.992981,193.090897 418.011047,202.104721 
	C408.008850,209.629227 397.870911,217.250381 389.177765,226.177170 
	C373.721375,242.048935 362.803040,260.935242 355.378479,281.965790 
	C350.303406,296.341248 346.714294,311.051941 346.294037,326.096161 
	C345.915222,339.655243 346.873810,353.497070 349.341461,366.825592 
	C352.154633,382.020508 357.704102,396.686768 365.183594,410.331909 
	C373.844116,426.131775 384.724304,440.410889 398.119263,452.499146 
	C413.480042,466.361450 430.963593,476.953278 450.492432,483.981293 
	C463.499084,488.662140 476.809753,491.730530 490.649506,493.199188 
	C508.376556,495.080322 525.728699,493.739868 542.858154,489.451294 
	C551.085815,487.391418 558.994812,484.075195 567.086487,481.446045 
	C569.461426,480.674347 571.524170,480.347839 573.271851,483.402557 
	C577.601501,490.970306 582.423401,498.259399 587.125488,505.610565 
	C600.140442,525.957764 613.310730,546.206543 626.191528,566.638000 
	C634.208252,579.354187 640.461182,581.598511 652.642212,577.906982 
	C663.544861,574.602783 670.624573,562.624390 666.513245,553.430176 
	C663.117493,545.836304 657.868652,539.071167 653.047607,531.310242 
z"/>
<path fill="#331F00" opacity="1.000000" stroke="none" 
	d="
M1.000003,290.468658 
	C1.646690,289.664917 2.769031,289.436005 2.870977,288.979309 
	C5.974514,275.075470 8.355245,260.977081 12.147154,247.268188 
	C17.409344,228.243805 25.280642,210.156754 35.451374,193.201187 
	C41.685482,182.808365 47.815647,172.221146 55.269215,162.723160 
	C66.138069,148.873108 77.342628,135.162186 91.331558,124.143761 
	C101.007629,116.522385 110.188507,108.170380 120.390656,101.339706 
	C142.892456,86.273956 167.008911,74.474525 193.167542,66.795494 
	C209.131744,62.109104 225.273865,59.198204 241.687103,56.699207 
	C258.439270,54.148609 275.096497,55.110004 291.759552,55.253010 
	C302.097839,55.341732 312.487244,57.521374 322.721924,59.458714 
	C333.831146,61.561604 344.998352,63.806984 355.752014,67.215141 
	C366.786407,70.712265 377.494324,75.369751 388.089935,80.091995 
	C406.224396,88.174118 423.291901,98.309570 438.816376,110.608315 
	C450.556396,119.908951 461.292480,130.506119 472.188995,140.828568 
	C476.926422,145.316437 477.870392,151.508057 475.671936,157.428467 
	C473.624908,162.941055 468.840302,165.744934 463.003296,167.053802 
	C448.235809,170.365219 437.209900,163.984177 426.769928,154.479706 
	C418.407898,146.867004 409.179047,140.206482 400.334869,133.123398 
	C399.882599,133.553726 399.430328,133.984070 398.978058,134.414413 
	C401.617462,139.742447 404.383514,145.012299 406.864532,150.413101 
	C410.020447,157.283157 413.567810,164.062424 415.835724,171.232147 
	C420.078613,184.645721 410.861023,192.871780 400.477722,195.856598 
	C387.684387,199.534210 380.661591,195.184555 375.964081,182.520844 
	C369.382721,164.778656 362.574829,147.112930 352.024506,131.216217 
	C344.069061,119.229301 334.391815,108.889053 320.797394,103.549919 
	C312.166901,100.160332 302.909515,98.366875 293.288422,95.677376 
	C293.288422,166.949402 293.288422,236.694351 293.288422,307.000000 
	C299.915222,307.000000 306.524139,306.864685 313.125092,307.036285 
	C320.418243,307.225830 326.618958,309.916382 330.032532,316.684357 
	C333.288788,323.140411 332.580170,329.913269 329.978943,336.461792 
	C326.293945,345.738770 319.150269,348.907562 309.543854,348.069733 
	C304.912567,347.665863 300.203735,347.816559 295.560272,348.144562 
	C294.527039,348.217560 292.781006,350.091919 292.779388,351.139130 
	C292.738007,377.780701 292.947021,404.422516 292.985413,431.064453 
	C293.041840,470.230194 293.005981,509.396118 292.980865,548.561951 
	C292.979706,550.362793 293.048431,552.284241 292.476593,553.939453 
	C291.256561,557.470581 293.174805,558.520996 295.841766,557.901123 
	C302.239258,556.414246 308.626953,554.737061 314.828033,552.587036 
	C324.575806,549.207397 332.367279,542.654846 338.841156,534.966980 
	C344.822266,527.864197 350.234467,520.122925 354.840881,512.059387 
	C361.705994,500.042084 367.418091,487.371521 374.067566,475.223419 
	C377.483551,468.982635 385.648193,467.205994 392.163147,469.977386 
	C399.428497,473.067963 405.281586,478.020599 407.453064,485.348572 
	C409.209259,491.274994 408.718811,497.770996 404.975464,503.712799 
	C401.387939,509.407288 398.789490,515.724915 395.306183,522.245361 
	C394.695312,523.062317 394.534668,523.402649 394.373993,523.742920 
	C394.940735,523.522095 395.507507,523.301270 396.074249,523.080444 
	C402.748993,518.521423 409.770905,514.388245 416.013245,509.298828 
	C424.376617,502.480103 432.975128,498.035309 444.159485,500.950073 
	C453.420135,503.363495 461.109619,516.235596 458.012421,524.918823 
	C457.490601,526.381714 456.663818,527.989197 455.494751,528.928467 
	C444.296875,537.924988 433.309143,547.229919 421.650818,555.595886 
	C403.289429,568.771790 382.799225,578.081543 361.601959,585.607300 
	C344.491821,591.681946 326.867737,596.219788 308.715515,597.937866 
	C294.476288,599.285522 280.120087,601.292236 265.920013,600.661438 
	C249.533203,599.933594 233.223038,596.877991 216.948837,594.381714 
	C199.443665,591.696655 182.788208,585.829712 166.609207,578.872131 
	C156.003998,574.311462 145.661423,568.966980 135.707504,563.112671 
	C125.380661,557.039062 115.383690,550.306946 105.746902,543.180603 
	C91.599899,532.719055 79.232452,520.299988 67.507782,507.148804 
	C49.465511,486.911377 35.073582,464.380249 24.043409,439.728119 
	C16.516895,422.906555 9.692824,405.781250 6.928864,387.342529 
	C5.848791,380.137268 4.294980,373.001984 2.884446,365.849152 
	C2.772480,365.281403 2.091939,364.825714 1.337818,364.658997 
	C1.000000,340.312439 1.000000,315.624878 1.000003,290.468658 
M252.000000,148.533249 
	C251.994049,132.541153 252.062332,116.547997 251.832809,100.559120 
	C251.815552,99.357635 249.661560,97.188560 248.521332,97.202042 
	C245.861816,97.233475 243.241867,98.471107 240.558228,98.956703 
	C223.942459,101.963264 211.179825,111.758636 199.684738,123.130119 
	C193.852844,128.899277 189.220490,136.012680 184.690643,142.940002 
	C174.088348,159.153641 166.572906,176.849716 161.031372,195.370041 
	C158.163696,204.954086 155.224045,214.554871 153.127991,224.322144 
	C150.338150,237.322281 148.179230,250.466293 146.058990,263.598511 
	C144.759613,271.646606 143.918320,279.776031 143.099518,287.891998 
	C142.465149,294.179901 142.184555,300.503510 141.756638,306.667816 
	C179.127548,306.667816 215.502670,306.667816 252.000000,306.667816 
	C252.000000,254.064636 252.000000,201.793594 252.000000,148.533249 
M251.933563,419.307037 
	C251.955704,407.992279 252.080170,396.676361 251.955734,385.363220 
	C251.895752,379.909943 251.130722,374.462463 251.116959,369.011230 
	C251.103271,363.597534 251.622253,358.181915 251.925842,352.768158 
	C252.143158,348.892761 250.392792,347.885193 246.545074,347.904358 
	C213.227142,348.070435 179.908051,347.996979 146.589294,348.010193 
	C145.145172,348.010773 143.701126,348.160889 142.000198,348.255646 
	C142.000198,350.545227 141.782501,352.547607 142.037048,354.488037 
	C143.287582,364.020264 144.540329,373.555267 146.025803,383.052795 
	C147.983429,395.568970 149.527786,408.198761 152.408981,420.508423 
	C155.603027,434.154785 159.672958,447.639771 164.132370,460.936523 
	C171.609436,483.231110 181.237076,504.489868 195.676361,523.369324 
	C209.006226,540.798279 224.844147,553.994080 247.151764,558.273132 
	C251.656952,559.137329 252.025635,557.970032 252.011368,554.504272 
	C251.976273,545.979614 252.000000,537.454651 252.000000,528.929810 
	C252.000031,510.365021 252.100037,491.799469 251.955673,473.235779 
	C251.888580,464.609497 251.149826,455.988678 251.073761,447.362183 
	C250.993408,438.246307 251.339371,429.126678 251.933563,419.307037 
M88.049583,468.344910 
	C89.188530,469.554413 90.430885,470.682953 91.450821,471.985626 
	C105.799377,490.311371 122.643265,505.953613 141.923279,518.974670 
	C144.414169,520.656921 147.023010,522.164429 149.577225,523.752930 
	C148.921646,520.218933 147.355728,517.615234 146.003494,514.905029 
	C136.536438,495.930420 128.169281,476.548767 121.506393,456.341522 
	C115.053146,436.770050 109.192505,417.178192 106.975494,396.625793 
	C105.363556,381.682648 103.508858,366.763489 102.107872,351.801300 
	C101.763748,348.126038 99.986008,347.962433 97.227547,347.974121 
	C83.737755,348.031342 70.247589,348.000000 56.757561,348.000000 
	C51.969067,348.000000 47.180573,348.000000 40.910187,348.000000 
	C43.281441,360.588593 45.210403,372.560822 47.842403,384.376434 
	C51.362789,400.180237 57.019169,415.393585 64.529602,429.639893 
	C71.450508,442.768005 80.072929,454.999146 88.049583,468.344910 
M141.944855,144.368027 
	C143.621872,140.687317 145.298874,137.006622 146.975891,133.325912 
	C84.948296,174.858841 49.874874,232.441620 41.467293,306.752533 
	C61.878311,306.752533 81.286362,306.752533 101.191643,306.752533 
	C102.995026,249.812469 116.065887,195.841187 141.944855,144.368027 
z"/>
<path fill="#000000" opacity="0" stroke="none" 
	d="
M1161.252930,126.350693 
	C1168.623291,117.129051 1175.943481,108.328667 1182.918091,99.262436 
	C1191.123657,88.595978 1200.901245,80.493942 1214.963745,80.075836 
	C1236.043945,79.449066 1257.139038,79.290817 1278.228760,79.019699 
	C1287.364624,78.902252 1296.503174,79.000000 1307.048950,79.000000 
	C1302.315430,85.004387 1298.290161,90.183525 1294.187134,95.300369 
	C1284.741821,107.079369 1275.303711,118.864761 1265.777954,130.578705 
	C1256.440918,142.060791 1246.930298,153.402222 1237.622559,164.907883 
	C1228.588013,176.075806 1219.792114,187.436813 1210.747314,198.596237 
	C1202.601685,208.646179 1194.211914,218.497665 1186.019775,228.510284 
	C1176.968262,239.573166 1168.022583,250.722641 1159.023926,261.828888 
	C1150.954224,271.788757 1143.142944,281.975281 1134.710205,291.618195 
	C1128.654907,298.542603 1121.922119,304.906464 1115.173828,311.178497 
	C1112.177368,313.963501 1108.396851,315.905090 1104.417480,318.605988 
	C1117.068604,323.557831 1127.312012,330.872223 1135.368530,340.382019 
	C1144.957031,351.700073 1153.183594,364.170685 1162.020142,376.127228 
	C1173.765137,392.019196 1185.556519,407.877014 1197.276489,423.787323 
	C1206.340942,436.092590 1215.213867,448.540283 1224.373657,460.773560 
	C1237.890015,478.825043 1251.678345,496.673065 1265.176270,514.738098 
	C1276.568237,529.984436 1287.697632,545.426758 1298.970947,560.762085 
	C1305.804443,570.058044 1312.690430,579.315552 1319.962769,589.144226 
	C1318.570068,589.468567 1317.430420,589.963867 1316.290161,589.965820 
	C1290.292114,590.009644 1264.281372,590.469910 1238.301880,589.775330 
	C1227.443970,589.484985 1215.767456,589.205200 1207.096924,580.902771 
	C1202.072998,576.092163 1197.794922,570.452942 1193.506714,564.933655 
	C1183.812378,552.455872 1174.288452,539.845154 1164.754272,527.243896 
	C1154.736816,514.004150 1144.877197,500.644409 1134.786255,487.461304 
	C1123.187378,472.308380 1111.348145,457.339722 1099.729980,442.201416 
	C1089.276367,428.580627 1078.992188,414.830048 1068.611206,401.153473 
	C1063.192871,394.015137 1058.084961,386.599426 1052.193726,379.872192 
	C1044.467163,371.049408 1035.135132,364.954071 1022.661926,364.932251 
	C1011.069641,364.911987 999.465515,364.557434 987.892456,363.897156 
	C982.767029,363.604767 981.905090,365.630127 981.913147,370.202240 
	C982.037415,441.196838 982.000183,512.191711 981.999817,583.186523 
	C981.999756,589.997803 981.998047,589.999512 975.224854,589.999695 
	C946.398743,590.000427 917.572571,590.000000 888.373291,590.000000 
	C888.373291,419.814270 888.373291,249.760452 888.373291,79.353218 
	C919.230896,79.353218 950.292480,79.353218 981.822632,79.353218 
	C981.822632,150.291809 981.822632,221.351868 981.822632,293.085602 
	C996.045532,292.154388 1009.948792,295.064606 1023.513184,290.752472 
	C1031.772339,288.126862 1038.034302,282.480774 1043.375610,276.000702 
	C1052.300171,265.173492 1060.851807,254.037659 1069.501465,242.985626 
	C1082.512817,226.360458 1095.398315,209.636261 1108.477783,193.064972 
	C1120.419067,177.935608 1132.581665,162.980988 1144.577148,147.894135 
	C1150.152954,140.881638 1155.564087,133.738327 1161.252930,126.350693 
z"/>
<path fill="#331F00" opacity="1.000000" stroke="none" 
	d="
M653.244263,531.624512 
	C657.868652,539.071167 663.117493,545.836304 666.513245,553.430176 
	C670.624573,562.624390 663.544861,574.602783 652.642212,577.906982 
	C640.461182,581.598511 634.208252,579.354187 626.191528,566.638000 
	C613.310730,546.206543 600.140442,525.957764 587.125488,505.610565 
	C582.423401,498.259399 577.601501,490.970306 573.271851,483.402557 
	C571.524170,480.347839 569.461426,480.674347 567.086487,481.446045 
	C558.994812,484.075195 551.085815,487.391418 542.858154,489.451294 
	C525.728699,493.739868 508.376556,495.080322 490.649506,493.199188 
	C476.809753,491.730530 463.499084,488.662140 450.492432,483.981293 
	C430.963593,476.953278 413.480042,466.361450 398.119263,452.499146 
	C384.724304,440.410889 373.844116,426.131775 365.183594,410.331909 
	C357.704102,396.686768 352.154633,382.020508 349.341461,366.825592 
	C346.873810,353.497070 345.915222,339.655243 346.294037,326.096161 
	C346.714294,311.051941 350.303406,296.341248 355.378479,281.965790 
	C362.803040,260.935242 373.721375,242.048935 389.177765,226.177170 
	C397.870911,217.250381 408.008850,209.629227 418.011047,202.104721 
	C429.992981,193.090897 443.772919,187.169189 457.971466,182.763245 
	C467.352325,179.852264 477.287415,178.597992 487.050598,177.097961 
	C492.727478,176.225754 498.551727,176.131607 504.315308,176.039459 
	C519.105652,175.803009 533.471924,177.826202 547.910034,181.645660 
	C564.634460,186.069946 580.123413,192.910934 594.235962,202.312546 
	C609.014160,212.157547 621.758301,224.552673 632.600586,238.911392 
	C644.351074,254.472839 652.331543,271.533478 658.330383,290.074036 
	C664.438538,308.952484 666.080750,328.080627 664.716675,347.397156 
	C663.741882,361.200439 660.461121,374.803833 655.673096,388.062439 
	C650.505066,402.373322 643.703125,415.772491 634.786926,427.842438 
	C628.015076,437.009491 619.315125,444.752533 611.469055,453.125458 
	C610.059387,454.629761 608.630310,456.115845 606.746826,458.098053 
	C612.972900,467.982422 619.326355,478.105194 625.716309,488.204895 
	C634.812744,502.582214 643.935913,516.942566 653.244263,531.624512 
M437.064117,436.561584 
	C451.624329,444.755280 466.565186,451.510376 483.361877,454.366425 
	C502.738983,457.661255 521.549072,455.983612 540.132996,450.776245 
	C547.044006,448.839752 553.453918,445.070862 560.036926,442.017853 
	C572.872314,436.065063 583.790283,427.191071 593.104004,416.932800 
	C600.578186,408.700684 606.811768,399.011932 612.031067,389.142090 
	C619.428894,375.152313 623.608765,359.904541 623.950256,343.910309 
	C624.202881,332.078430 623.943787,320.330902 621.152588,308.618408 
	C617.849731,294.758423 612.092102,282.078400 604.562622,270.226959 
	C598.111023,260.072205 590.171875,250.937485 580.286133,243.929306 
	C572.576538,238.463821 564.536926,233.380722 556.265686,228.812546 
	C546.617920,223.484116 536.127075,220.504562 525.210693,218.449173 
	C512.138062,215.987793 498.967560,215.200867 486.088898,217.320602 
	C471.506317,219.720795 457.401276,224.268295 444.264313,231.799057 
	C428.930969,240.588882 416.125427,251.868240 406.012909,266.208282 
	C395.754639,280.755005 388.763031,296.636993 385.656311,314.383423 
	C383.544952,326.444031 382.715759,338.519562 384.237152,350.457367 
	C386.202759,365.880432 390.969513,380.591705 398.633270,394.407379 
	C408.039337,411.364014 421.020111,424.787872 437.064117,436.561584 
z"/>
<path fill="#000000" opacity="0" stroke="none" 
	d="
M252.000000,149.027893 
	C252.000000,201.793594 252.000000,254.064636 252.000000,306.667816 
	C215.502670,306.667816 179.127548,306.667816 141.756638,306.667816 
	C142.184555,300.503510 142.465149,294.179901 143.099518,287.891998 
	C143.918320,279.776031 144.759613,271.646606 146.058990,263.598511 
	C148.179230,250.466293 150.338150,237.322281 153.127991,224.322144 
	C155.224045,214.554871 158.163696,204.954086 161.031372,195.370041 
	C166.572906,176.849716 174.088348,159.153641 184.690643,142.940002 
	C189.220490,136.012680 193.852844,128.899277 199.684738,123.130119 
	C211.179825,111.758636 223.942459,101.963264 240.558228,98.956703 
	C243.241867,98.471107 245.861816,97.233475 248.521332,97.202042 
	C249.661560,97.188560 251.815552,99.357635 251.832809,100.559120 
	C252.062332,116.547997 251.994049,132.541153 252.000000,149.027893 
z"/>
<path fill="#000000" opacity="0" stroke="none" 
	d="
M251.716339,419.657837 
	C251.339371,429.126678 250.993408,438.246307 251.073761,447.362183 
	C251.149826,455.988678 251.888580,464.609497 251.955673,473.235779 
	C252.100037,491.799469 252.000031,510.365021 252.000000,528.929810 
	C252.000000,537.454651 251.976273,545.979614 252.011368,554.504272 
	C252.025635,557.970032 251.656952,559.137329 247.151764,558.273132 
	C224.844147,553.994080 209.006226,540.798279 195.676361,523.369324 
	C181.237076,504.489868 171.609436,483.231110 164.132370,460.936523 
	C159.672958,447.639771 155.603027,434.154785 152.408981,420.508423 
	C149.527786,408.198761 147.983429,395.568970 146.025803,383.052795 
	C144.540329,373.555267 143.287582,364.020264 142.037048,354.488037 
	C141.782501,352.547607 142.000198,350.545227 142.000198,348.255646 
	C143.701126,348.160889 145.145172,348.010773 146.589294,348.010193 
	C179.908051,347.996979 213.227142,348.070435 246.545074,347.904358 
	C250.392792,347.885193 252.143158,348.892761 251.925842,352.768158 
	C251.622253,358.181915 251.103271,363.597534 251.116959,369.011230 
	C251.130722,374.462463 251.895752,379.909943 251.955734,385.363220 
	C252.080170,396.676361 251.955704,407.992279 251.716339,419.657837 
z"/>
<path fill="#000000" opacity="0" stroke="none" 
	d="
M87.997719,467.985138 
	C80.072929,454.999146 71.450508,442.768005 64.529602,429.639893 
	C57.019169,415.393585 51.362789,400.180237 47.842403,384.376434 
	C45.210403,372.560822 43.281441,360.588593 40.910187,348.000000 
	C47.180573,348.000000 51.969067,348.000000 56.757561,348.000000 
	C70.247589,348.000000 83.737755,348.031342 97.227547,347.974121 
	C99.986008,347.962433 101.763748,348.126038 102.107872,351.801300 
	C103.508858,366.763489 105.363556,381.682648 106.975494,396.625793 
	C109.192505,417.178192 115.053146,436.770050 121.506393,456.341522 
	C128.169281,476.548767 136.536438,495.930420 146.003494,514.905029 
	C147.355728,517.615234 148.921646,520.218933 149.577225,523.752930 
	C147.023010,522.164429 144.414169,520.656921 141.923279,518.974670 
	C122.643265,505.953613 105.799377,490.311371 91.450821,471.985626 
	C90.430885,470.682953 89.188530,469.554413 87.997719,467.985138 
z"/>
<path fill="#000000" opacity="0" stroke="none" 
	d="
M141.725067,144.681671 
	C116.065887,195.841187 102.995026,249.812469 101.191643,306.752533 
	C81.286362,306.752533 61.878311,306.752533 41.467293,306.752533 
	C49.874874,232.441620 84.948296,174.858841 146.975891,133.325912 
	C145.298874,137.006622 143.621872,140.687317 141.725067,144.681671 
z"/>
<path fill="#000000" opacity="0" stroke="none" 
	d="
M395.882324,522.891968 
	C395.507507,523.301270 394.940735,523.522095 394.373993,523.742920 
	C394.534668,523.402649 394.695312,523.062317 395.076721,522.529053 
	C395.428436,522.458496 395.559418,522.581055 395.882324,522.891968 
z"/>
<path fill="#000000" opacity="0" stroke="none" 
	d="
M436.804779,436.295898 
	C421.020111,424.787872 408.039337,411.364014 398.633270,394.407379 
	C390.969513,380.591705 386.202759,365.880432 384.237152,350.457367 
	C382.715759,338.519562 383.544952,326.444031 385.656311,314.383423 
	C388.763031,296.636993 395.754639,280.755005 406.012909,266.208282 
	C416.125427,251.868240 428.930969,240.588882 444.264313,231.799057 
	C457.401276,224.268295 471.506317,219.720795 486.088898,217.320602 
	C498.967560,215.200867 512.138062,215.987793 525.210693,218.449173 
	C536.127075,220.504562 546.617920,223.484116 556.265686,228.812546 
	C564.536926,233.380722 572.576538,238.463821 580.286133,243.929306 
	C590.171875,250.937485 598.111023,260.072205 604.562622,270.226959 
	C612.092102,282.078400 617.849731,294.758423 621.152588,308.618408 
	C623.943787,320.330902 624.202881,332.078430 623.950256,343.910309 
	C623.608765,359.904541 619.428894,375.152313 612.031067,389.142090 
	C606.811768,399.011932 600.578186,408.700684 593.104004,416.932800 
	C583.790283,427.191071 572.872314,436.065063 560.036926,442.017853 
	C553.453918,445.070862 547.044006,448.839752 540.132996,450.776245 
	C521.549072,455.983612 502.738983,457.661255 483.361877,454.366425 
	C466.565186,451.510376 451.624329,444.755280 436.804779,436.295898 
M582.963013,310.232574 
	C586.022644,305.651001 587.231262,300.631165 585.936646,295.257446 
	C584.338745,288.625366 580.173523,283.423737 573.617310,282.277649 
	C567.059387,281.131256 559.998230,280.946777 554.903137,287.463257 
	C548.455017,295.710327 541.587341,303.631470 534.838379,311.640808 
	C522.065430,326.799133 509.103821,341.802216 496.570648,357.155518 
	C494.048706,360.244995 492.985352,359.653961 490.829620,357.355927 
	C479.252167,345.014313 467.919128,332.416809 455.837860,320.585541 
	C449.715637,314.590057 439.235107,313.695618 431.467987,321.950500 
	C424.569946,329.281708 424.746979,338.551147 430.822510,345.084290 
	C445.035248,360.367706 459.782074,375.162048 474.535492,389.931824 
	C481.831879,397.236359 496.987793,401.496033 507.341492,394.608917 
	C513.603455,390.443542 518.756531,385.602936 523.530640,380.016754 
	C534.131104,367.613129 544.900574,355.353973 555.509766,342.957672 
	C564.607727,332.327087 573.578613,321.587708 582.963013,310.232574 
z"/>
<path fill="#331F00" opacity="1.000000" stroke="none" 
	d="
M582.784424,310.564514 
	C573.578613,321.587708 564.607727,332.327087 555.509766,342.957672 
	C544.900574,355.353973 534.131104,367.613129 523.530640,380.016754 
	C518.756531,385.602936 513.603455,390.443542 507.341492,394.608917 
	C496.987793,401.496033 481.831879,397.236359 474.535492,389.931824 
	C459.782074,375.162048 445.035248,360.367706 430.822510,345.084290 
	C424.746979,338.551147 424.569946,329.281708 431.467987,321.950500 
	C439.235107,313.695618 449.715637,314.590057 455.837860,320.585541 
	C467.919128,332.416809 479.252167,345.014313 490.829620,357.355927 
	C492.985352,359.653961 494.048706,360.244995 496.570648,357.155518 
	C509.103821,341.802216 522.065430,326.799133 534.838379,311.640808 
	C541.587341,303.631470 548.455017,295.710327 554.903137,287.463257 
	C559.998230,280.946777 567.059387,281.131256 573.617310,282.277649 
	C580.173523,283.423737 584.338745,288.625366 585.936646,295.257446 
	C587.231262,300.631165 586.022644,305.651001 582.784424,310.564514 
z"/>
</svg>